<svg width="560" height="476" viewBox="0 0 560 476" fill="none" xmlns="http://www.w3.org/2000/svg">
<path d="M374.306 476L600 345.668L225.695 129.522L0 259.852L374.306 476Z" fill="#2516DF"/>
<path d="M591.557 345.669L225.699 134.4L8.44727 259.851L374.308 471.124L591.557 345.669Z" fill="#A9A2F6"/>
<path d="M304.116 428.726L371.637 389.735L441.819 430.262L374.296 469.253L304.116 428.726ZM226.466 305.905L288.738 341.865L221.218 380.855L158.944 344.894L226.466 305.905ZM435.194 257.292L369.653 295.138L307.381 259.178L372.922 221.331L435.194 257.292ZM452.552 343.01L518.091 305.162L588.272 345.689L522.73 383.536L452.552 343.01ZM447.596 345.872L517.777 386.397L446.772 427.4L376.593 386.874L447.596 345.872ZM374.608 298L440.147 260.152L513.135 302.301L447.596 340.148L374.608 298ZM293.694 339.003L231.42 303.043L302.426 262.04L364.698 298L293.694 339.003ZM366.683 386.874L299.16 425.865L226.172 383.718L293.694 344.725L366.683 386.874ZM298.649 341.865L369.653 300.861L442.641 343.01L371.637 384.012L298.649 341.865ZM440.178 254.444L440.163 254.42L440.149 254.429L372.922 215.606L149.033 344.894L374.296 474.977L598.184 345.689L440.178 254.444Z" fill="#F0EFFB"/>
<path d="M62.6006 187.598V192.075C62.7413 193.314 63.6712 194.609 65.4442 195.622C67.8657 197.03 71.1592 197.565 73.9463 197.143C75.1274 196.974 76.2257 196.636 77.1266 196.101L127.628 166.931C128.952 166.2 129.571 165.187 129.628 164.143L129.655 159.78L126.446 160.034C123.012 158.204 118.029 158.034 115.129 159.723L72.3403 184.417L65.2759 188.499L65.1352 187.598H62.6006Z" fill="#C7784C"/>
<path d="M62.6006 187.598V192.075C62.7413 193.314 63.6712 194.609 65.4442 195.622C67.8657 197.03 71.1592 197.565 73.9463 197.143V184.417H72.3403L65.2759 188.499L65.1352 187.598H62.6006Z" fill="#DFCFB5"/>
<path d="M77.1262 191.888L127.64 162.718C130.633 160.989 130.257 157.97 126.801 155.975V155.973C123.344 153.978 118.116 153.762 115.122 155.49L64.6086 184.66C61.615 186.389 61.9911 189.408 65.4477 191.404C68.9043 193.399 74.1326 193.616 77.1262 191.888Z" fill="white"/>
<path d="M304.606 180.875L304.59 180.847L304.573 180.855L226.429 135.729L10.4731 260.101L281.905 416.783L497.86 292.412L304.606 180.875Z" fill="#E8E6F9"/>
<path d="M497.861 252.304L438.893 218.252V179.201L445.148 181.467L438.89 177.876V173.976L397.054 153.482L396.886 153.777L314.132 106.299L310.346 104.928V102.207L264.38 30.3017L247.36 40.1368L209.623 50.21L58.2621 137.674L62.3566 136.581L62.2369 136.651V163.755L10.4736 193.646V120.38L226.44 -3.99994L497.861 152.674V252.304Z" fill="url(#paint0_linear_1_1027)"/>
<path d="M497.861 286.179L438.894 252.127V217.746L497.861 251.797V286.179ZM10.4741 253.297V193.139L62.2374 163.249V200.268V223.944L10.4741 253.297Z" fill="url(#paint1_linear_1_1027)"/>
<path d="M497.86 292.395L438.893 258.357V253.703L440.149 254.429L440.164 254.42L440.178 254.444L497.86 287.755V292.395Z" fill="url(#paint2_linear_1_1027)"/>
<path d="M156.523 191.099L62.2368 136.652L213.596 49.1879L307.883 103.636L156.523 191.099Z" fill="#A8A2F6"/>
<path d="M156.523 303.996V191.099L307.882 103.636V216.533L156.523 303.996Z" fill="#7065F0"/>
<path d="M198.468 274.545L165.432 293.623V218.6L198.468 199.523V274.545Z" fill="#F7F7FD"/>
<path d="M62.2368 249.549V136.653L156.523 191.099V303.996L62.2368 249.549Z" fill="#A8A2F6"/>
<path d="M75.0117 163.528V236.115L87.6346 243.389V170.8L75.0117 163.528Z" fill="#F7F7FD"/>
<path d="M92.6699 173.718V246.305L105.291 253.579V180.991L92.6699 173.718Z" fill="#F7F7FD"/>
<path d="M110.327 183.908V256.496L122.95 263.769V191.182L110.327 183.908Z" fill="#F7F7FD"/>
<path d="M127.985 194.098V266.684L140.607 273.958V201.371L127.985 194.098Z" fill="#F7F7FD"/>
<path d="M337.084 237.561L206.068 162.394L307.877 103.629L438.893 178.797L337.084 237.561Z" fill="#7065F0"/>
<path d="M337.084 350.55V237.562L438.893 178.799V291.785L337.084 350.55Z" fill="#7065F0"/>
<path d="M206.068 275.382V162.396L337.084 237.562V350.55L206.068 275.382Z" fill="#A8A2F6"/>
<path d="M328.052 337.389L215.099 272.164V197.487L328.052 262.713V337.389Z" fill="#F7F7FD"/>
<path d="M181.789 190.613L176.633 184.765L200.099 171.204L206.068 174.629V177.161L181.789 190.613Z" fill="#5245ED"/>
<path d="M206.068 177.161V174.629L206.079 174.636L206.08 177.155L206.068 177.161Z" fill="#013BA1"/>
<path d="M58.2612 137.675L113.018 123.058L264.379 35.5937L209.622 50.2108L58.2612 137.675Z" fill="#5598E9"/>
<path d="M158.986 194.962L113.018 123.057L264.378 35.5925L310.345 107.498L158.986 194.962Z" fill="#3F461D"/>
<path d="M310.347 102.207V107.498L158.987 194.962V189.67L310.347 102.207Z" fill="#7065F0"/>
<path d="M126.531 162.093L109.328 137.704L76.6445 144.973L62.2368 136.653L64.9042 135.903L113.019 123.06L136.171 159.274L126.531 162.093Z" fill="#5245ED"/>
<path d="M62.2408 148.174L62.2368 136.651L76.6445 144.971L62.2408 148.174Z" fill="#5245ED"/>
<path d="M64.9038 135.903L112.808 122.443L113.018 122.774V123.059L64.9038 135.903Z" fill="#073CAE"/>
<path d="M58.2612 132.383L113.018 117.768L264.379 30.3031L209.622 44.9189L58.2612 132.383Z" fill="#CBC7FA"/>
<path d="M158.986 189.671L113.018 117.767L264.378 30.3023L310.345 102.208L158.986 189.671Z" fill="#A8A2F6"/>
<path d="M189.79 150.387L163.847 141.114L163.85 124.076L185.426 132.043L195.198 143.085L189.79 150.387Z" fill="#5245ED"/>
<path d="M163.848 122.757L154.468 117.341L163.79 111.958L173.169 117.375L163.848 122.757Z" fill="#A8A2F6"/>
<path d="M163.85 122.707L153.774 116.887L163.786 111.105L173.863 116.924L163.85 122.707Z" fill="#CBC7FA"/>
<path d="M163.85 124.456L173.864 118.673V116.923L163.85 122.707V124.456Z" fill="#2516DF"/>
<path d="M153.775 118.637L163.85 124.456V122.707L153.775 116.887V118.637Z" fill="#A8A2F6"/>
<path d="M170.429 117.363L163.836 121.18L163.815 121.157L157.22 117.342L163.792 113.548L163.815 113.571L170.429 117.363Z" fill="#2516DF"/>
<path d="M170.429 117.363L163.835 121.18L163.814 121.157V113.571L170.429 117.363Z" fill="#A8A2F6"/>
<path d="M163.847 141.113L173.169 135.731V117.375L163.847 122.757V141.113Z" fill="#2516DF"/>
<path d="M154.47 126.539L163.848 141.113V122.757L154.47 117.341V126.539Z" fill="#A8A2F6"/>
<path d="M163.852 113.075L162.528 112.309L163.843 111.55L165.168 112.314L163.852 113.075Z" fill="#A8A2F6"/>
<path d="M163.853 122.261L165.168 121.502V112.314L163.853 113.075V122.261Z" fill="#2516DF"/>
<path d="M162.528 121.497L163.852 122.261V113.075L162.528 112.309V121.497Z" fill="#A8A2F6"/>
<path d="M163.853 113.075L162.96 112.559L163.838 112.055L164.739 112.563L163.853 113.075Z" fill="#096EA8"/>
<path d="M163.862 115.893L163.853 115.888V113.076L164.738 112.564L165.164 112.804V115.145L163.862 115.893Z" fill="#093B7D"/>
<path d="M163.852 115.888L162.533 115.119V112.803L162.959 112.56L163.852 113.075V115.888Z" fill="#096EA8"/>
<path d="M171.858 108.447L170.533 107.683L171.848 106.922L173.174 107.687L171.858 108.447Z" fill="#A8A2F6"/>
<path d="M171.857 117.633L173.174 116.874V107.686L171.857 108.447V117.633Z" fill="#2516DF"/>
<path d="M170.533 116.869L171.858 117.633V108.447L170.533 107.682V116.869Z" fill="#A8A2F6"/>
<path d="M171.858 108.447L170.958 107.929L171.535 107.591L172.429 108.117L171.858 108.447Z" fill="#096EA8"/>
<path d="M171.857 111.272V108.448L172.428 108.118L173.174 108.556V110.512L171.857 111.272Z" fill="#093B7D"/>
<path d="M171.852 111.273L170.545 110.666V108.171L170.958 107.929L171.858 108.447V111.271L171.852 111.273Z" fill="#096EA8"/>
<path d="M155.794 108.423L154.468 107.659L155.785 106.899L157.109 107.664L155.794 108.423Z" fill="#A8A2F6"/>
<path d="M155.794 117.611L157.109 116.851V107.664L155.794 108.424V117.611Z" fill="#2516DF"/>
<path d="M154.468 116.846L155.794 117.611V108.423L154.468 107.659V116.846Z" fill="#A8A2F6"/>
<path d="M155.794 108.423L155.205 108.084L156.092 107.566L156.676 107.914L155.794 108.423Z" fill="#096EA8"/>
<path d="M155.794 111.246V108.424L156.676 107.915L157.105 108.172V110.513L155.794 111.246Z" fill="#093B7D"/>
<path d="M155.79 111.247L154.476 110.486V108.508L155.205 108.085L155.794 108.424V111.245L155.79 111.247Z" fill="#096EA8"/>
<path d="M163.854 113.061L152.771 106.66L163.784 100.301L174.867 106.7L163.854 113.061Z" fill="white"/>
<path d="M163.855 114.987L174.868 108.626V106.701L163.855 113.062V114.987Z" fill="#A8A2F6"/>
<path d="M152.771 108.587L163.854 114.987V113.062L152.771 106.662V108.587Z" fill="#CBC7FA"/>
<path d="M331.042 246.331L200.026 171.163L241.009 133.012L372.025 208.18L331.042 246.331Z" fill="#5598E9"/>
<path d="M314.13 106.299L266.035 88.8827L397.052 164.051L445.146 181.467L314.13 106.299Z" fill="#DDB79B"/>
<path d="M397.054 164.051L372.025 208.18L241.009 133.012L266.036 88.8828L397.054 164.051Z" fill="#433E44"/>
<path d="M337.088 252.302L337.084 240.707V252.193L337.088 252.189V252.302Z" fill="#02288E"/>
<path d="M337.088 252.302L206.08 177.155V174.637L331.042 246.331L337.084 240.707V252.3" fill="#5245ED"/>
<path d="M206.08 165.527V162.458L206.291 162.337L208.282 163.479L206.08 165.527Z" fill="#02288E"/>
<path d="M206.08 162.458V162.216L206.291 162.337L206.08 162.458Z" fill="#0852BE"/>
<path d="M331.042 246.331L206.08 174.637V165.527L208.282 163.478L337.088 237.362L337.084 240.707L331.042 246.331Z" fill="#073CAE"/>
<path d="M345.977 232.431L372.026 208.18L397.055 164.051L394.824 162.771L397.055 164.051L438.464 179.047L426.149 186.155L397.055 175.632L374.021 216.242L345.977 232.431Z" fill="#5245ED"/>
<path d="M337.088 252.189V240.703L345.976 232.431L374.02 216.242L372.025 219.761L337.088 252.189ZM438.889 190.764L426.148 186.155L438.463 179.047L438.889 179.201V190.764Z" fill="#5245ED"/>
<path d="M337.088 240.703V237.363L337.084 230.045L364.99 204.143L372.025 208.18L345.976 232.431L337.088 240.703Z" fill="#033093"/>
<path d="M438.889 177.878L396.885 153.778L397.053 153.483L438.889 173.977V177.878Z" fill="url(#paint3_linear_1_1027)"/>
<path d="M438.889 179.203L438.463 179.049L397.054 164.053L394.823 162.773L397.054 158.841L394.761 157.525L396.885 153.78L438.889 177.879V179.203Z" fill="#073962"/>
<path d="M372.026 208.18L364.99 204.142L368.46 200.92L372.026 202.966L394.824 162.771L397.054 164.051L372.026 208.18Z" fill="#02132B"/>
<path d="M337.084 252.194V240.708L337.088 240.704V252.19L337.084 252.194Z" fill="#000D5A"/>
<path d="M337.084 240.709V237.363L337.088 237.365V240.705L337.084 240.709Z" fill="#00136E"/>
<path d="M331.042 241.12L200.026 165.95L241.009 127.801L372.025 202.969L331.042 241.12Z" fill="#A8A2F6"/>
<path d="M314.13 101.085L266.035 83.6697L397.052 158.838L445.146 176.253L314.13 101.085Z" fill="#A8A2F6"/>
<path d="M397.053 158.839L372.025 202.966L241.009 127.8L266.036 83.6708L397.053 158.839Z" fill="#CBC7FA"/>
<path d="M113.018 117.767V123.058L58.2612 137.675V132.383L113.018 117.767Z" fill="#A8A2F6"/>
<path d="M113.018 117.766V123.057L158.986 194.962V189.67L113.018 117.766Z" fill="#A8A2F6"/>
<path d="M445.147 181.467V176.254L397.054 158.839L372.025 202.967L331.042 241.118V246.331L372.025 208.18L397.054 164.051L445.147 181.467Z" fill="#2516DF"/>
<path d="M331.042 246.331V241.118L200.026 165.949V171.163L331.042 246.331Z" fill="#A8A2F6"/>
<path d="M277.651 142.578V115.614L270.255 111.34L268.716 96.8675H277.651L305.137 112.174L304.67 116.136L297.616 127.612L277.651 142.578Z" fill="#5245ED"/>
<path d="M286.666 111.495V126.786L277.651 142.578V115.614L286.666 111.495Z" fill="#2516DF"/>
<path d="M277.651 142.578L259.78 132.249V105.287L277.651 115.614V142.578Z" fill="#A8A2F6"/>
<path d="M275.149 115.005L255.057 103.392L269.049 95.565L289.143 107.177L275.149 115.005Z" fill="#CBC7FA"/>
<path d="M275.149 114.112L255.057 102.498L269.049 94.6706L289.143 106.283L275.149 114.112Z" fill="white"/>
<path d="M276.494 117.168L286.667 111.494L289.143 107.178L275.149 115.006L276.494 117.168Z" fill="#2516DF"/>
<path d="M255.057 103.393L256.401 105.555L276.494 117.168L275.149 115.006L255.057 103.393Z" fill="#A8A2F6"/>
<path d="M275.149 115.005V114.11L289.143 106.282V107.177L275.149 115.005Z" fill="#A8A2F6"/>
<path d="M275.149 115.005V114.11L255.057 102.497V103.393L275.149 115.005Z" fill="#CBC7FA"/>
<path d="M261.369 131.8V110.406L276.066 118.888V140.281L261.369 131.8Z" fill="#A8A2F6"/>
<path d="M263.091 113.398V130.808L274.343 137.292V119.882L263.091 113.398Z" fill="white"/>
<path d="M265.029 114.517V129.983L274.343 135.346V137.292L263.091 130.809V113.398L265.029 114.517Z" fill="#2516DF"/>
<path d="M265.029 129.983L263.091 130.809L274.343 137.292V135.346L265.029 129.983Z" fill="#CBC7FA"/>
<path d="M266.463 130.809H263.091L265.03 129.982V114.517L266.501 115.363L266.463 130.809Z" fill="#0C59BE"/>
<path d="M315.399 164.195L308.991 142.257L306.464 118.485H315.399L342.885 133.791L342.418 137.754L335.363 149.229L315.399 164.195Z" fill="#5245ED"/>
<path d="M324.414 133.111V148.403L315.4 164.195V137.233L324.414 133.111Z" fill="#2516DF"/>
<path d="M315.4 164.195L297.528 153.866V126.904L315.4 137.233V164.195Z" fill="#A8A2F6"/>
<path d="M312.898 136.625L292.804 125.013L306.798 117.185L326.89 128.799L312.898 136.625Z" fill="#CBC7FA"/>
<path d="M312.898 135.727L292.804 124.115L306.798 116.287L326.89 127.9L312.898 135.727Z" fill="white"/>
<path d="M314.24 138.787L324.414 133.112L326.89 128.798L312.898 136.624L314.24 138.787Z" fill="#2516DF"/>
<path d="M292.804 125.012L294.147 127.173L314.241 138.787L312.898 136.624L292.804 125.012Z" fill="#A8A2F6"/>
<path d="M312.898 136.625V135.729L326.89 127.902V128.799L312.898 136.625Z" fill="#A8A2F6"/>
<path d="M312.898 136.625V135.729L292.804 124.117V125.013L312.898 136.625Z" fill="#CBC7FA"/>
<path d="M299.115 153.42V132.026L313.813 140.507V161.901L299.115 153.42Z" fill="#A8A2F6"/>
<path d="M300.838 135.016V152.426L312.09 158.91V141.5L300.838 135.016Z" fill="white"/>
<path d="M302.777 136.135V151.602L312.09 156.964V158.91L300.838 152.427V135.016L302.777 136.135Z" fill="#2516DF"/>
<path d="M302.777 151.602L300.838 152.427L312.09 158.91V156.964L302.777 151.602Z" fill="#CBC7FA"/>
<path d="M300.838 152.427H304.211L304.25 136.981L302.777 136.135V151.602L300.838 152.427Z" fill="#2516DF"/>
<path d="M353.148 185.814L346.739 163.876L344.211 140.104H353.148L380.632 155.41L380.165 159.373L373.108 170.848L353.148 185.814Z" fill="#5245ED"/>
<path d="M362.162 154.731V170.023L353.148 185.814V158.852L362.162 154.731Z" fill="#2516DF"/>
<path d="M353.149 185.814L335.277 175.486V148.523L353.149 158.852V185.814Z" fill="#A8A2F6"/>
<path d="M350.644 158.243L330.551 146.63L344.545 138.803L364.637 150.416L350.644 158.243Z" fill="#CBC7FA"/>
<path d="M350.644 157.348L330.551 145.735L344.545 137.908L364.637 149.521L350.644 157.348Z" fill="white"/>
<path d="M351.987 160.406L362.161 154.732L364.636 150.417L350.643 158.244L351.987 160.406Z" fill="#2516DF"/>
<path d="M330.551 146.631L331.895 148.793L351.988 160.406L350.644 158.243L330.551 146.631Z" fill="#A8A2F6"/>
<path d="M350.643 158.243V157.347L364.636 149.521V150.416L350.643 158.243Z" fill="#A8A2F6"/>
<path d="M350.644 158.243V157.347L330.551 145.734V146.63L350.644 158.243Z" fill="#CBC7FA"/>
<path d="M336.862 175.038V153.643L351.56 162.125V183.518L336.862 175.038Z" fill="#A8A2F6"/>
<path d="M338.585 156.636V174.044L349.837 180.529V163.119L338.585 156.636Z" fill="white"/>
<path d="M340.524 157.754V173.221L349.836 178.583V180.529L338.585 174.046V156.634L340.524 157.754Z" fill="#2516DF"/>
<path d="M340.524 173.221L338.585 174.046L349.836 180.529V178.583L340.524 173.221Z" fill="#CBC7FA"/>
<path d="M338.585 174.045H341.959L341.996 158.599L340.524 157.753V173.22L338.585 174.045Z" fill="#2516DF"/>
<path d="M579.717 296.901L474.277 236.014V230.59L579.717 291.477V296.901Z" fill="#2516DF"/>
<path d="M582.101 290.102L579.717 291.477L474.277 230.589L476.662 229.215L582.101 290.102Z" fill="#A8A2F6"/>
<path d="M579.717 348.693L474.277 287.807V282.383L579.717 343.269V348.693Z" fill="#2516DF"/>
<path d="M582.101 341.894L579.717 343.269L474.277 282.382L476.662 281.007L582.101 341.894Z" fill="#A8A2F6"/>
<path d="M488.25 303.446L479.812 298.573V222.689L484.031 219.991L488.25 227.561V303.446Z" fill="#A8A2F6"/>
<path d="M488.25 303.446L490.718 302.029V226.145L488.25 227.561V303.446Z" fill="#2516DF"/>
<path d="M488.251 227.561L490.718 226.145L486.5 218.577L484.031 219.991L488.251 227.561Z" fill="#CBC7FA"/>
<path d="M485.852 242.087C485.852 243.241 485.037 243.706 484.031 243.125C483.024 242.545 482.209 241.138 482.209 239.984C482.209 238.829 483.024 238.364 484.031 238.945C485.037 239.526 485.852 240.933 485.852 242.087Z" fill="#004899"/>
<path d="M485.852 292.305C485.852 293.46 485.037 293.924 484.031 293.343C483.024 292.761 482.209 291.355 482.209 290.2C482.209 289.047 483.024 288.583 484.031 289.163C485.037 289.743 485.852 291.15 485.852 292.305Z" fill="#004899"/>
<path d="M501.854 311.309L493.418 306.438V230.554L497.636 227.857L501.854 235.426V311.309Z" fill="#A8A2F6"/>
<path d="M501.854 311.309L504.322 309.894V234.01L501.854 235.426V311.309Z" fill="#2516DF"/>
<path d="M501.854 235.426L504.321 234.011L500.103 226.441L497.636 227.858L501.854 235.426Z" fill="#CBC7FA"/>
<path d="M499.458 249.95C499.458 251.105 498.643 251.571 497.637 250.989C496.63 250.409 495.815 249.002 495.815 247.847C495.815 246.694 496.63 246.228 497.637 246.809C498.643 247.391 499.458 248.797 499.458 249.95Z" fill="#004899"/>
<path d="M499.458 300.17C499.458 301.325 498.643 301.79 497.637 301.209C496.63 300.629 495.815 299.223 495.815 298.068C495.815 296.913 496.63 296.448 497.637 297.029C498.643 297.609 499.458 299.017 499.458 300.17Z" fill="#004899"/>
<path d="M515.46 319.175L507.023 314.302V238.419L511.242 235.722L515.46 243.292V319.175Z" fill="#A8A2F6"/>
<path d="M515.46 319.175L517.929 317.758V241.875L515.46 243.292V319.175Z" fill="#2516DF"/>
<path d="M515.46 243.291L517.929 241.874L513.71 234.306L511.242 235.721L515.46 243.291Z" fill="#CBC7FA"/>
<path d="M513.064 257.817C513.064 258.971 512.248 259.437 511.242 258.856C510.236 258.276 509.419 256.868 509.419 255.713C509.419 254.56 510.236 254.094 511.242 254.676C512.248 255.256 513.064 256.663 513.064 257.817Z" fill="#004899"/>
<path d="M513.064 308.037C513.064 309.192 512.248 309.656 511.242 309.076C510.236 308.493 509.419 307.087 509.419 305.932C509.419 304.777 510.236 304.313 511.242 304.893C512.248 305.475 513.064 306.882 513.064 308.037Z" fill="#004899"/>
<path d="M529.066 327.042L520.629 322.17V246.285L524.848 243.588L529.066 251.157V327.042Z" fill="#A8A2F6"/>
<path d="M529.065 327.042L531.534 325.626V249.741L529.065 251.157V327.042Z" fill="#2516DF"/>
<path d="M529.065 251.157L531.534 249.741L527.315 242.173L524.847 243.588L529.065 251.157Z" fill="#CBC7FA"/>
<path d="M526.669 265.683C526.669 266.838 525.852 267.304 524.847 266.722C523.841 266.141 523.025 264.735 523.025 263.581C523.025 262.425 523.841 261.961 524.847 262.542C525.852 263.122 526.669 264.528 526.669 265.683Z" fill="#004899"/>
<path d="M526.669 315.902C526.669 317.057 525.852 317.522 524.847 316.941C523.841 316.361 523.025 314.954 523.025 313.799C523.025 312.645 523.841 312.18 524.847 312.761C525.852 313.341 526.669 314.747 526.669 315.902Z" fill="#004899"/>
<path d="M542.671 334.907L534.233 330.035V254.151L538.453 251.454L542.671 259.022V334.907Z" fill="#A8A2F6"/>
<path d="M542.671 334.907L545.14 333.49V257.608L542.671 259.022V334.907Z" fill="#2516DF"/>
<path d="M542.67 259.023L545.139 257.608L540.92 250.039L538.452 251.454L542.67 259.023Z" fill="#CBC7FA"/>
<path d="M540.274 273.548C540.274 274.702 539.457 275.167 538.453 274.587C537.446 274.007 536.631 272.598 536.631 271.444C536.631 270.29 537.446 269.825 538.453 270.405C539.457 270.987 540.274 272.394 540.274 273.548Z" fill="#004899"/>
<path d="M540.274 323.769C540.274 324.923 539.457 325.387 538.453 324.807C537.446 324.225 536.631 322.819 536.631 321.665C536.631 320.51 537.446 320.046 538.453 320.627C539.457 321.207 540.274 322.614 540.274 323.769Z" fill="#004899"/>
<path d="M556.274 342.771L547.838 337.901V262.016L552.056 259.319L556.274 266.888V342.771Z" fill="#A8A2F6"/>
<path d="M556.274 342.771L558.743 341.357V265.472L556.274 266.888V342.771Z" fill="#2516DF"/>
<path d="M556.275 266.887L558.744 265.472L554.525 257.903L552.057 259.319L556.275 266.887Z" fill="#CBC7FA"/>
<path d="M553.88 281.415C553.88 282.568 553.064 283.034 552.057 282.453C551.052 281.873 550.236 280.467 550.236 279.312C550.236 278.158 551.052 277.691 552.057 278.274C553.064 278.854 553.88 280.26 553.88 281.415Z" fill="#004899"/>
<path d="M553.88 331.632C553.88 332.787 553.064 333.252 552.057 332.67C551.052 332.09 550.236 330.684 550.236 329.529C550.236 328.374 551.052 327.91 552.057 328.491C553.064 329.071 553.88 330.477 553.88 331.632Z" fill="#004899"/>
<defs>
<linearGradient id="paint0_linear_1_1027" x1="254.168" y1="92.1314" x2="254.168" y2="223.704" gradientUnits="userSpaceOnUse">
<stop stop-color="#F7F7FD"/>
<stop offset="1" stop-color="#E8E6F9"/>
</linearGradient>
<linearGradient id="paint1_linear_1_1027" x1="254.168" y1="92.1338" x2="254.168" y2="223.706" gradientUnits="userSpaceOnUse">
<stop stop-color="#FFFCF7"/>
<stop offset="1" stop-color="#E8E6F9"/>
</linearGradient>
<linearGradient id="paint2_linear_1_1027" x1="254.167" y1="92.1321" x2="254.167" y2="223.704" gradientUnits="userSpaceOnUse">
<stop stop-color="#E8E6F9"/>
<stop offset="1" stop-color="#D1CEF3"/>
</linearGradient>
<linearGradient id="paint3_linear_1_1027" x1="254.167" y1="92.1326" x2="254.167" y2="223.705" gradientUnits="userSpaceOnUse">
<stop stop-color="#0850A1"/>
<stop offset="1" stop-color="#074CA1"/>
</linearGradient>
</defs>
</svg>
