<svg width="20" height="18" viewBox="0 0 20 18" fill="none" xmlns="http://www.w3.org/2000/svg">
<path d="M2.31798 2.31798C1.90011 2.73584 1.56864 3.23192 1.34249 3.77789C1.11634 4.32386 0.999939 4.90903 0.999939 5.49998C0.999939 6.09093 1.11634 6.6761 1.34249 7.22207C1.56864 7.76803 1.90011 8.26411 2.31798 8.68198L9.99998 16.364L17.682 8.68198C18.5259 7.83806 19 6.69346 19 5.49998C19 4.3065 18.5259 3.1619 17.682 2.31798C16.8381 1.47406 15.6935 0.99995 14.5 0.99995C13.3065 0.99995 12.1619 1.47406 11.318 2.31798L9.99998 3.63598L8.68198 2.31798C8.26411 1.90011 7.76803 1.56864 7.22207 1.34249C6.6761 1.11634 6.09093 0.999939 5.49998 0.999939C4.90903 0.999939 4.32386 1.11634 3.77789 1.34249C3.23192 1.56864 2.73584 1.90011 2.31798 2.31798V2.31798Z" stroke="#7065F0" stroke-width="2" stroke-linecap="round" stroke-linejoin="round"/>
</svg>
