<svg width="56" height="56" viewBox="0 0 56 56" fill="none" xmlns="http://www.w3.org/2000/svg">
<circle cx="28" cy="28" r="27.5" stroke="#E0DEF7"/>
<circle cx="28" cy="28" r="24.5" fill="#E0DEF7"/>
<path d="M31.5 39.6667H24.5C18.6667 39.6667 16.3334 37.3333 16.3334 31.5V24.5C16.3334 18.6667 18.6667 16.3333 24.5 16.3333H31.5C37.3334 16.3333 39.6667 18.6667 39.6667 24.5V31.5C39.6667 37.3333 37.3334 39.6667 31.5 39.6667Z" fill="white"/>
<path d="M24.1172 30.7181C24.1172 32.2231 25.2722 33.4365 26.7072 33.4365H29.6355C30.8839 33.4365 31.8989 32.3748 31.8989 31.0681C31.8989 29.6448 31.2805 29.1431 30.3589 28.8165L25.6572 27.1831C24.7355 26.8565 24.1172 26.3548 24.1172 24.9315C24.1172 23.6248 25.1322 22.5631 26.3805 22.5631H29.3089C30.7439 22.5631 31.8989 23.7765 31.8989 25.2815" stroke="#7065F0" stroke-width="2" stroke-linecap="round" stroke-linejoin="round"/>
<path d="M28 21V35" stroke="#7065F0" stroke-width="2" stroke-linecap="round" stroke-linejoin="round"/>
<rect x="35" y="35" width="21" height="21" rx="10.5" fill="#7065F0"/>
<g clip-path="url(#clip0_1_2017)">
<path d="M41.4166 45.5L44.3333 48.4167L50.1666 42.5833" stroke="white" stroke-width="2" stroke-linecap="round" stroke-linejoin="round"/>
</g>
<defs>
<clipPath id="clip0_1_2017">
<rect width="14" height="14" fill="white" transform="translate(38.5 38.5)"/>
</clipPath>
</defs>
</svg>
