<svg width="56" height="56" viewBox="0 0 56 56" fill="none" xmlns="http://www.w3.org/2000/svg">
<circle cx="28" cy="28" r="27.5" stroke="#E0DEF7"/>
<circle cx="28" cy="28" r="24.5" fill="#E0DEF7"/>
<g clip-path="url(#clip0_1_1987)">
<path d="M38.1646 23.1957L30.3873 17.1521C29.7048 16.6216 28.8648 16.3336 28 16.3336C27.1353 16.3336 26.2953 16.6216 25.6127 17.1521L17.834 23.1957C17.3665 23.5589 16.9883 24.024 16.7282 24.5556C16.4681 25.0871 16.3331 25.671 16.3334 26.2627V36.753C16.3334 37.5258 16.6407 38.267 17.1876 38.8135C17.7346 39.3599 18.4765 39.667 19.25 39.667H36.75C37.5236 39.667 38.2655 39.3599 38.8124 38.8135C39.3594 38.267 39.6667 37.5258 39.6667 36.753V26.2627C39.6667 25.0636 39.1125 23.9315 38.1646 23.1957Z" fill="white" stroke="white" stroke-width="2" stroke-linecap="round" stroke-linejoin="round"/>
</g>
<path d="M23.625 32.375L32.375 23.625" stroke="#7065F0" stroke-width="2" stroke-linecap="round" stroke-linejoin="round"/>
<path d="M24.3542 25.0833C24.7569 25.0833 25.0833 24.7569 25.0833 24.3542C25.0833 23.9515 24.7569 23.625 24.3542 23.625C23.9515 23.625 23.625 23.9515 23.625 24.3542C23.625 24.7569 23.9515 25.0833 24.3542 25.0833Z" fill="#7065F0" stroke="#7065F0" stroke-width="2" stroke-linecap="round" stroke-linejoin="round"/>
<path d="M31.6457 32.3747C32.0484 32.3747 32.3748 32.0483 32.3748 31.6455C32.3748 31.2428 32.0484 30.9164 31.6457 30.9164C31.243 30.9164 30.9165 31.2428 30.9165 31.6455C30.9165 32.0483 31.243 32.3747 31.6457 32.3747Z" fill="#7065F0" stroke="#7065F0" stroke-width="2" stroke-linecap="round" stroke-linejoin="round"/>
<rect x="35" y="35" width="21" height="21" rx="10.5" fill="#7065F0"/>
<path d="M39.9 46.2C39.9 46.0144 39.9738 45.8363 40.105 45.705C40.2363 45.5738 40.4144 45.5 40.6 45.5H42C42.1857 45.5 42.3637 45.5738 42.495 45.705C42.6263 45.8363 42.7 46.0144 42.7 46.2V49.7C42.7 49.8857 42.6263 50.0637 42.495 50.195C42.3637 50.3263 42.1857 50.4 42 50.4H40.6C40.4144 50.4 40.2363 50.3263 40.105 50.195C39.9738 50.0637 39.9 49.8857 39.9 49.7V46.2ZM44.1 43.4C44.1 43.2144 44.1738 43.0363 44.305 42.905C44.4363 42.7738 44.6144 42.7 44.8 42.7H46.2C46.3857 42.7 46.5637 42.7738 46.695 42.905C46.8263 43.0363 46.9 43.2144 46.9 43.4V49.7C46.9 49.8857 46.8263 50.0637 46.695 50.195C46.5637 50.3263 46.3857 50.4 46.2 50.4H44.8C44.6144 50.4 44.4363 50.3263 44.305 50.195C44.1738 50.0637 44.1 49.8857 44.1 49.7V43.4ZM48.3 41.3C48.3 41.1144 48.3738 40.9363 48.505 40.805C48.6363 40.6738 48.8144 40.6 49 40.6H50.4C50.5857 40.6 50.7637 40.6738 50.895 40.805C51.0263 40.9363 51.1 41.1144 51.1 41.3V49.7C51.1 49.8857 51.0263 50.0637 50.895 50.195C50.7637 50.3263 50.5857 50.4 50.4 50.4H49C48.8144 50.4 48.6363 50.3263 48.505 50.195C48.3738 50.0637 48.3 49.8857 48.3 49.7V41.3Z" fill="white"/>
<defs>
<clipPath id="clip0_1_1987">
<rect width="28" height="28" fill="white" transform="translate(14 14)"/>
</clipPath>
</defs>
</svg>
