<svg width="56" height="56" viewBox="0 0 56 56" fill="none" xmlns="http://www.w3.org/2000/svg">
<circle cx="28" cy="28" r="27.5" stroke="#E0DEF7"/>
<circle cx="28" cy="28" r="24.5" fill="#E0DEF7"/>
<rect x="29.4438" y="21.875" width="1.75" height="8.75" fill="#7065F0"/>
<rect x="19.25" y="28" width="1.75" height="8.75" fill="#7065F0"/>
<rect x="34.125" y="21.875" width="1.75" height="8.75" fill="#7065F0"/>
<path d="M19.8334 23.3333C17.8967 23.3333 16.3334 24.8967 16.3334 26.8333V36.1667C16.3334 38.1033 17.8967 39.6667 19.8334 39.6667H21.5834C22.8667 39.6667 23.9167 38.6167 23.9167 37.3333V25.6667C23.9167 24.3833 22.8667 23.3333 21.5834 23.3333H19.8334ZM21 33.8333C21 34.3117 20.6034 34.7083 20.125 34.7083C19.6467 34.7083 19.25 34.3117 19.25 33.8333V29.1667C19.25 28.6883 19.6467 28.2917 20.125 28.2917C20.6034 28.2917 21 28.6883 21 29.1667V33.8333Z" fill="white"/>
<path d="M36.1666 16.3333H29.1666C27.23 16.3333 25.6666 17.8967 25.6666 19.8333V36.1667C25.6666 38.1033 27.23 39.6667 29.1666 39.6667H29.75C30.0766 39.6667 30.3333 39.41 30.3333 39.0833V35C30.3333 34.3583 30.8583 33.8333 31.5 33.8333H33.8333C34.475 33.8333 35 34.3583 35 35V39.0833C35 39.41 35.2566 39.6667 35.5833 39.6667H36.1666C38.1033 39.6667 39.6666 38.1033 39.6666 36.1667V19.8333C39.6666 17.8967 38.1033 16.3333 36.1666 16.3333ZM31.2083 29.1667C31.2083 29.645 30.8116 30.0417 30.3333 30.0417C29.855 30.0417 29.4583 29.645 29.4583 29.1667V23.3333C29.4583 22.855 29.855 22.4583 30.3333 22.4583C30.8116 22.4583 31.2083 22.855 31.2083 23.3333V29.1667ZM35.875 29.1667C35.875 29.645 35.4783 30.0417 35 30.0417C34.5216 30.0417 34.125 29.645 34.125 29.1667V23.3333C34.125 22.855 34.5216 22.4583 35 22.4583C35.4783 22.4583 35.875 22.855 35.875 23.3333V29.1667Z" fill="white"/>
<rect x="35" y="35" width="21" height="21" rx="10.5" fill="#7065F0"/>
<path d="M45.2083 50.75C48.2689 50.75 50.75 48.2689 50.75 45.2083C50.75 42.1477 48.2689 39.6667 45.2083 39.6667C42.1477 39.6667 39.6666 42.1477 39.6666 45.2083C39.6666 48.2689 42.1477 50.75 45.2083 50.75Z" stroke="white" stroke-width="2" stroke-linecap="round" stroke-linejoin="round"/>
<path d="M51.3333 51.3333L50.1666 50.1667" stroke="white" stroke-width="2" stroke-linecap="round" stroke-linejoin="round"/>
</svg>
