<svg width="16" height="16" viewBox="0 0 16 16" fill="none" xmlns="http://www.w3.org/2000/svg">
<path fill-rule="evenodd" clip-rule="evenodd" d="M3.99998 1.60001C4.21215 1.60001 4.41563 1.68429 4.56566 1.83432C4.71569 1.98435 4.79998 2.18783 4.79998 2.40001V3.20001H5.59998C5.81215 3.20001 6.01563 3.28429 6.16566 3.43432C6.31569 3.58435 6.39998 3.78783 6.39998 4.00001C6.39998 4.21218 6.31569 4.41566 6.16566 4.56569C6.01563 4.71572 5.81215 4.80001 5.59998 4.80001H4.79998V5.60001C4.79998 5.81218 4.71569 6.01566 4.56566 6.16569C4.41563 6.31572 4.21215 6.40001 3.99998 6.40001C3.7878 6.40001 3.58432 6.31572 3.43429 6.16569C3.28426 6.01566 3.19998 5.81218 3.19998 5.60001V4.80001H2.39998C2.1878 4.80001 1.98432 4.71572 1.83429 4.56569C1.68426 4.41566 1.59998 4.21218 1.59998 4.00001C1.59998 3.78783 1.68426 3.58435 1.83429 3.43432C1.98432 3.28429 2.1878 3.20001 2.39998 3.20001H3.19998V2.40001C3.19998 2.18783 3.28426 1.98435 3.43429 1.83432C3.58432 1.68429 3.7878 1.60001 3.99998 1.60001ZM3.99998 9.60001C4.21215 9.60001 4.41563 9.68429 4.56566 9.83432C4.71569 9.98435 4.79998 10.1878 4.79998 10.4V11.2H5.59998C5.81215 11.2 6.01563 11.2843 6.16566 11.4343C6.31569 11.5843 6.39998 11.7878 6.39998 12C6.39998 12.2122 6.31569 12.4157 6.16566 12.5657C6.01563 12.7157 5.81215 12.8 5.59998 12.8H4.79998V13.6C4.79998 13.8122 4.71569 14.0157 4.56566 14.1657C4.41563 14.3157 4.21215 14.4 3.99998 14.4C3.7878 14.4 3.58432 14.3157 3.43429 14.1657C3.28426 14.0157 3.19998 13.8122 3.19998 13.6V12.8H2.39998C2.1878 12.8 1.98432 12.7157 1.83429 12.5657C1.68426 12.4157 1.59998 12.2122 1.59998 12C1.59998 11.7878 1.68426 11.5843 1.83429 11.4343C1.98432 11.2843 2.1878 11.2 2.39998 11.2H3.19998V10.4C3.19998 10.1878 3.28426 9.98435 3.43429 9.83432C3.58432 9.68429 3.7878 9.60001 3.99998 9.60001ZM9.59998 1.60001C9.77653 1.59995 9.94814 1.6583 10.0881 1.76596C10.228 1.87361 10.3284 2.02454 10.3736 2.19521L11.3168 5.76001L14 7.30721C14.1216 7.37742 14.2226 7.47841 14.2928 7.60002C14.363 7.72163 14.3999 7.85958 14.3999 8.00001C14.3999 8.14043 14.363 8.27838 14.2928 8.39999C14.2226 8.5216 14.1216 8.62259 14 8.69281L11.3168 10.2408L10.3728 13.8048C10.3275 13.9753 10.2271 14.1261 10.0873 14.2336C9.94745 14.3412 9.77599 14.3995 9.59958 14.3995C9.42316 14.3995 9.2517 14.3412 9.11186 14.2336C8.97202 14.1261 8.87165 13.9753 8.82638 13.8048L7.88318 10.24L5.19998 8.69281C5.07837 8.62259 4.97739 8.5216 4.90718 8.39999C4.83697 8.27838 4.80001 8.14043 4.80001 8.00001C4.80001 7.85958 4.83697 7.72163 4.90718 7.60002C4.97739 7.47841 5.07837 7.37742 5.19998 7.30721L7.88318 5.75921L8.82718 2.19521C8.87234 2.02467 8.9726 1.87385 9.11237 1.7662C9.25213 1.65855 9.42356 1.60013 9.59998 1.60001Z" fill="white"/>
</svg>
