<svg width="25" height="24" viewBox="0 0 25 24" fill="none" xmlns="http://www.w3.org/2000/svg">
<path d="M22.5 5.80021C21.7483 6.1263 20.9534 6.34187 20.14 6.44021C20.9982 5.92753 21.6413 5.12099 21.95 4.17021C21.1436 4.65027 20.2608 4.98851 19.34 5.17021C18.7245 4.50278 17.905 4.05851 17.0098 3.90706C16.1147 3.75562 15.1945 3.90557 14.3938 4.3334C13.593 4.76123 12.9569 5.44274 12.5852 6.27105C12.2135 7.09935 12.1273 8.0276 12.34 8.91021C10.7094 8.82774 9.11444 8.40316 7.65865 7.66407C6.20287 6.92498 4.91885 5.8879 3.89 4.62021C3.52914 5.25038 3.33952 5.96403 3.34 6.69021C3.33872 7.36459 3.50422 8.02883 3.82176 8.62377C4.13929 9.21872 4.59902 9.72592 5.16 10.1002C4.50798 10.0825 3.86989 9.90751 3.3 9.59021V9.64021C3.30489 10.5851 3.63599 11.4993 4.23731 12.2282C4.83864 12.957 5.67326 13.4559 6.6 13.6402C6.24326 13.7488 5.87287 13.806 5.5 13.8102C5.24189 13.8072 4.98442 13.7838 4.73 13.7402C4.99391 14.553 5.50462 15.2634 6.19107 15.7724C6.87753 16.2814 7.70558 16.5638 8.56 16.5802C7.1172 17.7155 5.33588 18.3351 3.5 18.3402C3.16574 18.3413 2.83174 18.3213 2.5 18.2802C4.37443 19.4905 6.55881 20.1329 8.79 20.1302C10.3297 20.1462 11.8571 19.8552 13.2831 19.2743C14.7091 18.6934 16.005 17.8341 17.0952 16.7467C18.1854 15.6593 19.048 14.3656 19.6326 12.9411C20.2172 11.5166 20.512 9.98994 20.5 8.45021C20.5 8.28021 20.5 8.10021 20.5 7.92021C21.2847 7.33502 21.9615 6.61763 22.5 5.80021Z" fill="#000929"/>
</svg>
