<svg width="25" height="24" viewBox="0 0 25 24" fill="none" xmlns="http://www.w3.org/2000/svg">
<path d="M20.9701 2.00014H4.03006C3.83964 1.9975 3.65056 2.03239 3.47362 2.10282C3.29669 2.17326 3.13536 2.27786 2.99886 2.41065C2.86235 2.54344 2.75334 2.70182 2.67805 2.87675C2.60276 3.05167 2.56267 3.23972 2.56006 3.43014V20.5701C2.56267 20.7606 2.60276 20.9486 2.67805 21.1235C2.75334 21.2985 2.86235 21.4568 2.99886 21.5896C3.13536 21.7224 3.29669 21.827 3.47362 21.8975C3.65056 21.9679 3.83964 22.0028 4.03006 22.0001H20.9701C21.1605 22.0028 21.3496 21.9679 21.5265 21.8975C21.7034 21.827 21.8648 21.7224 22.0013 21.5896C22.1378 21.4568 22.2468 21.2985 22.3221 21.1235C22.3974 20.9486 22.4375 20.7606 22.4401 20.5701V3.43014C22.4375 3.23972 22.3974 3.05167 22.3221 2.87675C22.2468 2.70182 22.1378 2.54344 22.0013 2.41065C21.8648 2.27786 21.7034 2.17326 21.5265 2.10282C21.3496 2.03239 21.1605 1.9975 20.9701 2.00014ZM8.59006 18.7401H5.59006V9.74014H8.59006V18.7401ZM7.09006 8.48014C6.67632 8.48014 6.27953 8.31578 5.98697 8.02323C5.69442 7.73067 5.53006 7.33388 5.53006 6.92014C5.53006 6.5064 5.69442 6.10961 5.98697 5.81705C6.27953 5.5245 6.67632 5.36014 7.09006 5.36014C7.30975 5.33522 7.53224 5.35699 7.74293 5.42402C7.95363 5.49105 8.1478 5.60183 8.31272 5.7491C8.47763 5.89637 8.60958 6.07682 8.69993 6.27862C8.79028 6.48043 8.83698 6.69904 8.83698 6.92014C8.83698 7.14124 8.79028 7.35985 8.69993 7.56166C8.60958 7.76346 8.47763 7.94391 8.31272 8.09118C8.1478 8.23845 7.95363 8.34923 7.74293 8.41626C7.53224 8.48329 7.30975 8.50505 7.09006 8.48014ZM19.4101 18.7401H16.4101V13.9101C16.4101 12.7001 15.9801 11.9101 14.8901 11.9101C14.5527 11.9126 14.2242 12.0184 13.9489 12.2133C13.6735 12.4082 13.4645 12.6828 13.3501 13.0001C13.2718 13.2352 13.2379 13.4827 13.2501 13.7301V18.7301H10.2501C10.2501 18.7301 10.2501 10.5501 10.2501 9.73014H13.2501V11.0001C13.5226 10.5272 13.919 10.1377 14.3965 9.87334C14.874 9.60902 15.4146 9.47999 15.9601 9.50014C17.9601 9.50014 19.4101 10.7901 19.4101 13.5601V18.7401Z" fill="#000929"/>
</svg>
